# xmcd
# 
# Track frame offsets:
#     150
#     18850
#     35475
#     51800
#     67925
#     85180
#     102862
#     117867
#     137690
#     150737
# 
# Disc length: 2249
# 
# Revision: 3
# Processed by: cddbd v1.5.2PL0 Copyright (c) Steve Scherf et al.
# Submitted via: fre:ac v1.0.31
# 
DISCID=7508c70a
DTITLE=陳雷 - 有影沒／自然就是美
DYEAR=1993
DGENRE=POP
TTITLE0=有影無
TTITLE1=自然就是美
TTITLE2=好額與窮赤
TTITLE3=戀愛追追追
TTITLE4=不通衝紅燈
TTITLE5=甜甜的白賊話
TTITLE6=歡喜的目屎
TTITLE7=愛就是給你滿足
TTITLE8=想乎妥當
TTITLE9=祝福你
EXTD=
EXTT0=
EXTT1=
EXTT2=
EXTT3=
EXTT4=
EXTT5=
EXTT6=
EXTT7=
EXTT8=
EXTT9=
PLAYORDER=
